<?xml version="1.0" encoding="UTF-8"?>
<svg width="210px" height="47px" viewBox="0 0 210 47" version="1.1" xmlns="http://www.w3.org/2000/svg" xmlns:xlink="http://www.w3.org/1999/xlink">
    <!-- Generator: Sketch 47.1 (45422) - http://www.bohemiancoding.com/sketch -->
    <title>Group</title>
    <desc>Created with Sketch.</desc>
    <defs></defs>
    <g id="Page-1" stroke="none" stroke-width="1" fill="none" fill-rule="evenodd">
        <g id="Desktop-HD" transform="translate(-43.000000, -34.000000)" fill="#FFFFFF">
            <g id="Group" transform="translate(43.000000, 34.000000)">
                <path d="M209.206325,10 C205.162833,12.413522 204.109322,15.0350949 206.045793,17.8647187 C207.982263,20.6943424 209.035774,23.8533285 209.206325,27.3416768 C209.206325,32.1516015 207.263615,36.490144 204.12347,39.6322118 C200.981402,42.7733185 196.640937,44.7169894 191.849753,44.7169894 C187.057607,44.7169894 182.717142,42.7733185 179.576997,39.6322118 C177.847154,37.9042908 176.482019,35.8116612 175.603163,33.4831002 C174.725748,35.8116612 173.360133,37.9042908 171.629329,39.6322118 C168.490144,42.7733185 164.149679,44.7169894 159.357534,44.7169894 C154.565388,44.7169894 150.225884,42.7733185 147.083817,39.6322118 C143.943671,36.490144 142,32.1516015 142,27.3575337 C142.321646,23.5774981 143.415811,20.4132264 145.282496,17.8647187 C147.44788,14.9084099 146.353714,12.286837 142,10 L143.111905,10 L159.357534,10 C164.149679,10 168.490144,11.9436709 171.629329,15.0857386 C173.360133,16.8136596 174.725267,18.9053282 175.603163,21.2338892 C176.481539,18.9053282 177.847154,16.8136596 179.576997,15.0857386 C182.717142,11.9436709 187.058087,10 191.849753,10 L209.206325,10 Z M206.982996,27.3556116 L206.982996,27.3556116 L206.982996,27.3508065 C206.982996,23.8286538 205.774989,20.5890421 203.756359,18.0163811 L203.754437,18.013498 C203.718879,17.9692909 203.683321,17.9241228 203.647282,17.8803962 L203.640555,17.871747 C203.606919,17.8294619 203.571842,17.7862159 203.538206,17.7448918 L203.522349,17.7261519 C203.491597,17.6886719 203.460363,17.651192 203.42961,17.6137121 L203.405104,17.5863229 C203.375793,17.550765 203.34504,17.5152071 203.315729,17.4820518 L203.286418,17.4484159 C203.257107,17.4157411 203.231159,17.3845079 203.201848,17.3527941 C203.190796,17.3378982 203.177342,17.3244439 203.16629,17.310509 C203.139862,17.2797562 203.112953,17.251406 203.084603,17.2220948 C203.070668,17.2062379 203.060097,17.191342 203.046162,17.1769267 C203.019734,17.1476155 202.993786,17.1197458 202.966397,17.0904345 C202.953423,17.0745776 202.937086,17.0596818 202.92219,17.0433444 C202.899606,17.0169162 202.8751,16.9928906 202.851074,16.9683845 C202.835217,16.9477225 202.817438,16.9299435 202.799659,16.9121646 C202.775153,16.8857364 202.750647,16.8617108 202.726621,16.8343217 C202.708843,16.8194258 202.693947,16.8016468 202.676168,16.7838679 C202.651662,16.7574397 202.624753,16.7324531 202.600247,16.707947 C202.582468,16.6901681 202.567572,16.6733502 202.549793,16.6546102 C202.507508,16.6132862 202.465223,16.5700401 202.422938,16.5306381 L202.420055,16.527755 C202.37777,16.48547 202.333563,16.4431849 202.291278,16.4037829 L202.288395,16.4008999 C202.246109,16.3614979 202.201902,16.3192128 202.158176,16.2788498 C202.12454,16.2480971 202.091385,16.2168638 202.057749,16.186111 L202.024113,16.1567998 L202.024113,16.1539167 C201.979906,16.1145147 201.935699,16.0741517 201.889089,16.0337887 L201.889089,16.0337887 C201.844882,15.9943867 201.798272,15.9540237 201.753104,15.9146218 L201.753104,15.9146218 C201.706975,15.8742588 201.662287,15.8338958 201.616158,15.7964158 L201.613275,15.7964158 C201.569068,15.7560528 201.522458,15.7185729 201.475368,15.6810929 L201.475368,15.6782099 C201.429239,15.6407299 201.382629,15.60325 201.335539,15.5657701 L201.333617,15.5657701 C201.286527,15.5273291 201.239917,15.4898492 201.192827,15.4523693 L201.190905,15.4523693 C201.143815,15.4139283 201.097205,15.3764484 201.048193,15.3408905 C201.010713,15.3101377 200.97035,15.2808265 200.930948,15.2524763 L200.903559,15.2318143 L200.903559,15.2298922 C200.854547,15.1943343 200.806015,15.1587764 200.757003,15.122738 C200.72625,15.100154 200.695017,15.0785309 200.663303,15.0540248 C200.645524,15.0429731 200.628706,15.0295187 200.610927,15.0155839 L200.608044,15.0155839 C200.559032,14.980026 200.5105,14.9468707 200.461488,14.9113128 C200.41632,14.88056 200.372113,14.8493267 200.325503,14.820496 L200.310607,14.8094442 L200.310607,14.8094442 C200.259193,14.7738864 200.21018,14.740731 200.159727,14.7070952 L200.159727,14.7070952 C200.108312,14.6744204 200.057377,14.640304 200.005963,14.6095513 L200.005963,14.6066682 C199.955509,14.5759154 199.903614,14.5427601 199.85316,14.5120073 L199.85316,14.5120073 C199.801745,14.4783715 199.747928,14.4471382 199.697474,14.4163855 L199.697474,14.4163855 C199.644137,14.3827496 199.592242,14.3515163 199.541788,14.3226856 C199.38418,14.2299468 199.225611,14.1376885 199.064159,14.0516769 L199.064159,14.0516769 C199.010822,14.0223656 198.957005,13.9935349 198.903668,13.9651847 L198.901746,13.9651847 C198.848409,13.9358735 198.794592,13.9070428 198.739333,13.8806146 C198.685996,13.8513034 198.630257,13.8243947 198.57692,13.7979666 L198.574037,13.7979666 C198.5207,13.7686553 198.464961,13.7427077 198.411624,13.7182016 C198.356365,13.6908124 198.301106,13.6648647 198.245367,13.6374756 L198.245367,13.6374756 C198.189147,13.6110474 198.133888,13.5870218 198.078149,13.5625157 C198.02289,13.5351265 197.96667,13.5111009 197.909009,13.4865948 L197.909009,13.4865948 C197.85375,13.4620887 197.79753,13.4375826 197.739868,13.413557 L197.739868,13.413557 C197.684609,13.3890509 197.626467,13.3664668 197.570728,13.3424412 L197.567845,13.3424412 C197.512586,13.3208182 197.455405,13.2982341 197.398705,13.2756501 L197.396783,13.273728 C197.283382,13.2285599 197.167579,13.1843528 197.052256,13.1425482 L197.052256,13.1425482 C196.994114,13.1228473 196.936933,13.1002632 196.878791,13.0805622 C196.820649,13.0599002 196.760585,13.0401992 196.703404,13.0204982 L196.703404,13.0204982 C196.64334,12.9998362 196.585198,12.9801352 196.528017,12.9623563 L196.525134,12.9623563 C196.467953,12.9426553 196.407889,12.9248763 196.349747,12.9042143 L196.349747,12.9042143 C196.289683,12.8873964 196.229619,12.8696174 196.172438,12.8518385 C196.112374,12.8340596 196.05231,12.8162806 195.992246,12.8004237 L195.992246,12.8004237 C195.932182,12.7826448 195.872118,12.7648658 195.812054,12.74997 L195.812054,12.74997 C195.75199,12.7341131 195.691926,12.7182562 195.631862,12.7028798 L195.631862,12.7028798 C195.571798,12.6870229 195.508851,12.672127 195.448787,12.6557896 L195.448787,12.6557896 C195.388723,12.6408938 195.326737,12.6264784 195.266673,12.6135046 C195.206609,12.5986087 195.144623,12.5841933 195.084559,12.5712195 L195.082637,12.5712195 C195.022573,12.5582457 194.959626,12.5447914 194.899562,12.5337396 C194.837576,12.5207658 194.77559,12.5063504 194.712643,12.4962597 L194.712643,12.4962597 C194.652579,12.4852079 194.590593,12.4736756 194.528607,12.4626238 L194.528607,12.4626238 C194.46566,12.451572 194.403674,12.4400398 194.341688,12.429949 L194.341688,12.429949 C194.278741,12.4203388 194.216755,12.409287 194.154769,12.4006378 L194.151885,12.4006378 C194.089899,12.389586 194.026952,12.3799758 193.964966,12.3713265 L193.964966,12.3713265 C193.90298,12.3617163 193.838111,12.3554696 193.776125,12.3468204 L193.776125,12.3468204 C193.711256,12.3372102 193.64927,12.3309635 193.586323,12.3242364 L193.584401,12.3242364 C193.522415,12.3155872 193.459468,12.3093405 193.39556,12.3016523 L193.39556,12.3016523 C193.330691,12.2978082 193.268704,12.2915616 193.204316,12.2838734 L193.204316,12.2838734 C193.139447,12.2800293 193.077461,12.2737826 193.013072,12.2689775 L193.013072,12.2689775 C192.948203,12.2641724 192.884295,12.2593673 192.819906,12.2560037 L192.819906,12.2560037 C192.755037,12.2511985 192.691129,12.2492765 192.62674,12.2449519 L192.62674,12.2449519 C192.561871,12.2420688 192.497002,12.2382247 192.433575,12.2353417 L192.433575,12.2353417 C192.368706,12.2334196 192.303836,12.2314976 192.240409,12.2314976 L192.240409,12.2314976 C192.17554,12.2286145 192.109229,12.2266924 192.04436,12.2266924 L192.04436,12.2266924 C191.979491,12.2266924 191.915583,12.2238094 191.849272,12.2238094 C187.671221,12.2238094 183.886228,13.9185751 181.148271,16.6584543 C178.408872,19.397853 176.714587,23.1799627 176.714587,27.3584947 C176.714587,31.5384683 178.408391,35.3205779 181.148271,38.0599766 C183.885747,40.7993753 187.67074,42.4946215 191.849272,42.4946215 C196.026363,42.4946215 199.811355,40.7998558 202.550754,38.0599766 C205.288231,35.3205779 206.982516,31.5384683 206.982516,27.3584947 L206.982516,27.3556116 L206.982996,27.3556116 Z M148.658454,16.6546102 C148.640675,16.6733502 148.625779,16.6901681 148.608001,16.707947 C148.583494,16.7324531 148.556586,16.7579203 148.53208,16.7838679 C148.514301,16.8016468 148.499405,16.8194258 148.481626,16.8343217 C148.45712,16.8617108 148.432614,16.8857364 148.407627,16.9121646 C148.389848,16.9299435 148.37303,16.9477225 148.357173,16.9683845 C148.332667,16.9928906 148.308161,17.0173967 148.286058,17.0433444 C148.271162,17.0592013 148.255305,17.0740971 148.24185,17.0904345 C148.214461,17.1197458 148.188514,17.1476155 148.161124,17.1769267 C148.148151,17.1908615 148.136618,17.2062379 148.123644,17.2220948 C148.097216,17.251406 148.068386,17.2792757 148.041957,17.310509 C148.030906,17.3244439 148.01649,17.3378982 148.0064,17.3527941 C147.977088,17.3845079 147.95018,17.4157411 147.921829,17.4484159 L147.892518,17.4820518 C147.863207,17.5147266 147.832454,17.550765 147.803143,17.5863229 L147.778637,17.6137121 C147.747884,17.651192 147.716651,17.6886719 147.684937,17.7261519 L147.670041,17.7448918 C147.636405,17.7862159 147.600367,17.8294619 147.567692,17.871747 L147.560965,17.8803962 C147.525407,17.9246033 147.489849,17.9697714 147.453811,18.013498 L147.451889,18.0163811 C145.432297,20.5890421 144.225251,23.8286538 144.225251,27.3508065 L144.225251,27.3556116 L144.225251,27.3556116 L144.225251,27.3575337 C144.225251,31.5375072 145.919056,35.3196169 148.657013,38.0590156 C151.396411,40.7984143 155.180443,42.4936605 159.358495,42.4936605 C163.536546,42.4936605 167.321539,40.7988948 170.058535,38.0590156 C172.797934,35.3196169 174.49318,31.5375072 174.49318,27.3575337 C174.49318,23.1794821 172.798414,19.3973725 170.058535,16.6574933 C167.322019,13.9180946 163.537027,12.2228483 159.358495,12.2228483 C159.294587,12.2228483 159.227315,12.2257314 159.163407,12.2257314 L159.163407,12.2257314 C159.098538,12.2257314 159.032227,12.2276535 158.967358,12.2305365 L158.967358,12.2305365 C158.90345,12.2305365 158.838581,12.2324586 158.774192,12.2343806 L158.774192,12.2343806 C158.709323,12.2372637 158.645415,12.2411078 158.581026,12.2439909 L158.581026,12.2439909 C158.516157,12.248796 158.452249,12.250718 158.387861,12.2550426 L158.387861,12.2550426 C158.322991,12.2588867 158.258122,12.2636919 158.194695,12.2680165 L158.194695,12.2680165 C158.129826,12.2728216 158.06784,12.2790682 158.003451,12.2829123 L158.003451,12.2829123 C157.938582,12.2906005 157.876596,12.2968472 157.812207,12.3006913 L157.812207,12.3006913 C157.748299,12.3083795 157.685352,12.3146261 157.623366,12.3232753 L157.620483,12.3232753 C157.558497,12.3300025 157.496511,12.3362492 157.431642,12.3458594 L157.431642,12.3458594 C157.369656,12.3545086 157.304787,12.3607553 157.242801,12.3703655 L157.242801,12.3703655 C157.179853,12.3790147 157.117867,12.3881445 157.055881,12.3996767 L157.052998,12.3996767 C156.991012,12.408326 156.929026,12.4193777 156.866079,12.428988 L156.866079,12.428988 C156.804093,12.4390787 156.742107,12.450611 156.67916,12.4616628 L156.67916,12.4616628 C156.617174,12.4727146 156.55711,12.4842469 156.495124,12.4952986 L156.495124,12.4952986 C156.432177,12.5053894 156.370191,12.5198047 156.308205,12.5327786 C156.248141,12.5438303 156.185194,12.5572847 156.12513,12.5702585 L156.123208,12.5702585 C156.063144,12.5832323 156.001158,12.5976477 155.941094,12.6125435 C155.88103,12.6255174 155.818083,12.6399327 155.758019,12.6548286 L155.758019,12.6548286 C155.697955,12.6706855 155.635969,12.6855814 155.575905,12.7019188 L155.575905,12.7019188 C155.515841,12.7168146 155.455777,12.7326715 155.395713,12.7490089 L155.395713,12.7490089 C155.335649,12.7639048 155.275585,12.7816838 155.215521,12.7994627 L155.215521,12.7994627 C155.155457,12.8153196 155.095393,12.8330985 155.035329,12.8508775 C154.978148,12.8686564 154.918084,12.8864354 154.85802,12.9032533 L154.85802,12.9032533 C154.799878,12.9239153 154.739814,12.9416942 154.682633,12.9613952 L154.67975,12.9613952 C154.622569,12.9791742 154.564427,12.9988752 154.504363,13.0195372 L154.504363,13.0195372 C154.446221,13.0392382 154.387118,13.0589392 154.328976,13.0796012 C154.270834,13.0993022 154.213653,13.1218862 154.155511,13.1415872 L154.155511,13.1415872 C154.040188,13.1838723 153.924865,13.2280794 153.810984,13.272767 L153.809062,13.274689 C153.752842,13.2972731 153.695661,13.3198572 153.638961,13.3414802 L153.637039,13.3414802 C153.58178,13.3659863 153.523638,13.3885704 153.467899,13.412596 L153.467899,13.412596 C153.409757,13.4371021 153.354498,13.4616082 153.298758,13.4856338 L153.298758,13.4856338 C153.240616,13.5101399 153.185357,13.534646 153.129618,13.5615547 C153.074359,13.5860608 153.018139,13.6105669 152.9624,13.6365145 L152.9624,13.6365145 C152.907141,13.6639037 152.851882,13.6898514 152.796143,13.7172406 C152.742806,13.7417467 152.686106,13.7676943 152.632769,13.7970055 L152.630847,13.7970055 C152.57751,13.8234337 152.52177,13.8503424 152.468434,13.8796536 C152.413175,13.9060818 152.359357,13.9349125 152.306021,13.9642237 L152.304099,13.9642237 C152.250762,13.9925739 152.196944,14.0214046 152.143608,14.0507159 L152.143608,14.0507159 C151.984078,14.137208 151.823587,14.2289858 151.665979,14.3217246 C151.614564,14.3510358 151.56363,14.3817886 151.510293,14.4154244 L151.510293,14.4154244 C151.458878,14.4461772 151.406022,14.4774105 151.354607,14.5110463 L151.354607,14.5110463 C151.304153,14.5417991 151.252258,14.5749544 151.201804,14.6057072 L151.201804,14.6085902 C151.150389,14.639343 151.099455,14.6734594 151.04804,14.7061342 L151.04804,14.7061342 C150.997587,14.73977 150.948574,14.7729253 150.89716,14.8084832 L150.89716,14.8084832 L150.882264,14.819535 C150.835173,14.8488462 150.790486,14.879599 150.746279,14.9103518 C150.697267,14.9459096 150.648735,14.979065 150.599723,15.0146229 L150.59684,15.0146229 C150.579061,15.0285577 150.561282,15.042012 150.543503,15.0530638 C150.51275,15.0775699 150.481517,15.099193 150.450764,15.121777 C150.401752,15.1573349 150.35322,15.1928928 150.303247,15.2289312 L150.303247,15.2308532 C150.294598,15.2375804 150.285468,15.2438271 150.276819,15.2515153 C150.236456,15.2798655 150.197054,15.3086962 150.158613,15.3399295 C150.1096,15.3754873 150.063952,15.4129673 150.016862,15.4514082 L150.013979,15.4514082 C149.967849,15.4888882 149.92124,15.5263681 149.87415,15.5648091 L149.872228,15.5648091 C149.825137,15.602289 149.778528,15.6397689 149.732399,15.6772489 L149.732399,15.6801319 C149.685308,15.7176119 149.638699,15.7550918 149.594492,15.7954548 L149.591609,15.7954548 C149.545479,15.8329347 149.500792,15.8732977 149.453702,15.9136607 L149.453702,15.9136607 C149.409494,15.9530627 149.362885,15.9934257 149.318678,16.0328277 L149.318678,16.0328277 C149.271588,16.0731907 149.227861,16.1135537 149.182693,16.1529557 L149.182693,16.1558388 C149.172602,16.164488 149.16107,16.1755398 149.150018,16.18515 C149.116382,16.2159028 149.083227,16.247136 149.049591,16.2778888 C149.005384,16.3182518 148.960216,16.3605369 148.918411,16.3999388 L148.916489,16.4028219 C148.874204,16.4422239 148.829997,16.4845089 148.787712,16.526794 L148.784829,16.5296771 C148.742544,16.5705206 148.700259,16.6132862 148.658454,16.6546102 L148.658454,16.6546102 Z M189.009927,24.517708 C189.734539,23.7911739 190.73977,23.3418952 191.849753,23.3418952 C192.961177,23.3418952 193.964005,23.7916544 194.6915,24.517708 C195.416112,25.2452031 195.865391,26.2485121 195.865391,27.3575337 C195.865391,28.4694383 195.415632,29.4717863 194.6915,30.1992814 C193.964005,30.9267765 192.960696,31.3750942 191.849753,31.3750942 C190.739289,31.3750942 189.734539,30.926296 189.009927,30.1992814 C188.282432,29.4717863 187.834114,28.4694383 187.834114,27.3575337 C187.834114,26.2480315 188.282432,25.2447226 189.009927,24.517708 L189.009927,24.517708 Z M191.849753,21.1180858 C190.125676,21.1180858 188.564973,21.8162697 187.437692,22.9454728 C186.307528,24.075637 185.609344,25.6344178 185.609344,27.3575337 C185.609344,29.0835326 186.307528,30.6413524 187.437692,31.7715166 C188.564973,32.9016807 190.125676,33.5998646 191.849753,33.5998646 C193.572869,33.5998646 195.133571,32.9016807 196.263736,31.7715166 C197.391017,30.6413524 198.0892,29.0835326 198.0892,27.3575337 C198.0892,25.6344178 197.391017,24.075637 196.263736,22.9454728 C195.133571,21.8167502 193.572869,21.1180858 191.849753,21.1180858 L191.849753,21.1180858 Z M191.849753,18.8942764 C194.186482,18.8942764 196.303138,19.8423266 197.83549,21.3737182 C199.36544,22.9060708 200.312049,25.020804 200.312049,27.3575337 C200.312049,29.6971464 199.36496,31.8118796 197.83549,33.3432712 C196.303138,34.8756238 194.186482,35.8227129 191.849753,35.8227129 C189.512062,35.8227129 187.395407,34.8756238 185.865937,33.3432712 C184.333585,31.8113991 183.386495,29.6971464 183.386495,27.3575337 C183.386495,25.020804 184.333585,22.9060708 185.865937,21.3737182 C187.395887,19.841846 189.512062,18.8942764 191.849753,18.8942764 Z M156.516266,24.517708 C157.243762,23.7911739 158.247071,23.3418952 159.358014,23.3418952 C160.468477,23.3418952 161.472267,23.7916544 162.19784,24.517708 C162.925335,25.2452031 163.373653,26.2485121 163.373653,27.3575337 C163.373653,28.4694383 162.924854,29.4717863 162.19784,30.1992814 C161.472267,30.9267765 160.467997,31.3750942 159.358014,31.3750942 C158.24659,31.3750942 157.243762,30.926296 156.516266,30.1992814 C155.791654,29.4717863 155.342376,28.4694383 155.342376,27.3575337 C155.342376,26.2480315 155.791654,25.2447226 156.516266,24.517708 L156.516266,24.517708 Z M159.358014,21.1180858 C157.634898,21.1180858 156.074195,21.8162697 154.944031,22.9454728 C153.81675,24.075637 153.118566,25.6344178 153.118566,27.3575337 C153.118566,29.0835326 153.81675,30.6413524 154.944031,31.7715166 C156.074195,32.9016807 157.634898,33.5998646 159.358014,33.5998646 C161.08113,33.5998646 162.642794,32.9016807 163.770075,31.7715166 C164.900239,30.6413524 165.597462,29.0835326 165.597462,27.3575337 C165.597462,25.6344178 164.900239,24.075637 163.770075,22.9454728 C162.642794,21.8167502 161.08113,21.1180858 159.358014,21.1180858 L159.358014,21.1180858 Z M153.372277,21.3737182 C154.904629,19.841846 157.021284,18.8942764 159.358014,18.8942764 C161.694744,18.8942764 163.81236,19.8423266 165.34183,21.3737182 C166.874182,22.9060708 167.821271,25.020804 167.821271,27.3575337 C167.821271,29.6971464 166.874182,31.8118796 165.34183,33.3432712 C163.81188,34.8756238 161.694744,35.8227129 159.358014,35.8227129 C157.021284,35.8227129 154.904629,34.8756238 153.372277,33.3432712 C151.842327,31.8113991 150.895718,29.6971464 150.895718,27.3575337 C150.895718,25.020804 151.842807,22.9060708 153.372277,21.3737182 Z M181.587243,38.572171 L175.792624,46.5974162 L170,38.572171 L175.792624,33 L181.587243,38.572171 Z" id="Shape" fill-rule="nonzero"></path>
                <path d="M1.4,14.28 L5,14.28 L5,42 L1.4,42 L1.4,14.28 Z M0.5,3.3 C0.5,2.5399962 0.7599974,1.9000026 1.28,1.38 C1.8000026,0.8599974 2.4399962,0.6 3.2,0.6 C3.9600038,0.6 4.5999974,0.8599974 5.12,1.38 C5.6400026,1.9000026 5.9,2.5399962 5.9,3.3 C5.9,4.0600038 5.6400026,4.6999974 5.12,5.22 C4.5999974,5.7400026 3.9600038,6 3.2,6 C2.4399962,6 1.8000026,5.7400026 1.28,5.22 C0.7599974,4.6999974 0.5,4.0600038 0.5,3.3 Z M15.2,22.08 C15.2,21.5599974 15.1800002,20.9300037 15.14,20.19 C15.0999998,19.4499963 15.0700001,18.7000038 15.05,17.94 C15.0299999,17.1799962 15.0000002,16.4700033 14.96,15.81 C14.9199998,15.1499967 14.9,14.6400018 14.9,14.28 L18.5,14.28 C18.5400002,15.3200052 18.5699999,16.3199952 18.59,17.28 C18.6100001,18.2400048 18.6599996,18.8599986 18.74,19.14 L18.92,19.14 C19.6400036,17.6199924 20.8399916,16.3100055 22.52,15.21 C24.2000084,14.1099945 26.1599888,13.56 28.4,13.56 C30.5600108,13.56 32.3199932,13.8999966 33.68,14.58 C35.0400068,15.2600034 36.1099961,16.1499945 36.89,17.25 C37.6700039,18.3500055 38.2099985,19.6199928 38.51,21.06 C38.8100015,22.5000072 38.96,23.9799924 38.96,25.5 L38.96,42 L35.36,42 L35.36,25.68 C35.36,24.5599944 35.260001,23.4700053 35.06,22.41 C34.859999,21.3499947 34.5100025,20.4000042 34.01,19.56 C33.5099975,18.7199958 32.8100045,18.0500025 31.91,17.55 C31.0099955,17.0499975 29.8400072,16.8 28.4,16.8 C27.0799934,16.8 25.8300059,17.0299977 24.65,17.49 C23.4699941,17.9500023 22.4500043,18.6499953 21.59,19.59 C20.7299957,20.5300047 20.0500025,21.7099929 19.55,23.13 C19.0499975,24.5500071 18.8,26.2199904 18.8,28.14 L18.8,42 L15.2,42 L15.2,22.08 Z M48.62,34.92 C49.3800038,36.4000074 50.4999926,37.5299961 51.98,38.31 C53.4600074,39.0900039 55.0199918,39.48 56.66,39.48 C57.4200038,39.48 58.1799962,39.3600012 58.94,39.12 C59.7000038,38.8799988 60.379997,38.5400022 60.98,38.1 C61.580003,37.6599978 62.0699981,37.1300031 62.45,36.51 C62.8300019,35.8899969 63.02,35.180004 63.02,34.38 C63.02,33.0999936 62.6100041,32.1400032 61.79,31.5 C60.9699959,30.8599968 59.960006,30.3600018 58.76,30 C57.559994,29.6399982 56.2400072,29.3300013 54.8,29.07 C53.3599928,28.8099987 52.040006,28.4100027 50.84,27.87 C49.639994,27.3299973 48.6300041,26.5800048 47.81,25.62 C46.9899959,24.6599952 46.58,23.3000088 46.58,21.54 C46.58,20.1799932 46.8599972,19.000005 47.42,18 C47.9800028,16.999995 48.7099955,16.1700033 49.61,15.51 C50.5100045,14.8499967 51.5199944,14.3600016 52.64,14.04 C53.7600056,13.7199984 54.8999942,13.56 56.06,13.56 C58.3400114,13.56 60.3099917,13.9799958 61.97,14.82 C63.6300083,15.6600042 64.9199954,16.979991 65.84,18.78 L62.6,20.7 C61.9199966,19.4199936 61.0700051,18.4500033 60.05,17.79 C59.0299949,17.1299967 57.7000082,16.8 56.06,16.8 C55.4199968,16.8 54.7500035,16.899999 54.05,17.1 C53.3499965,17.300001 52.7200028,17.5799982 52.16,17.94 C51.5999972,18.3000018 51.1300019,18.7599972 50.75,19.32 C50.3699981,19.8800028 50.18,20.5199964 50.18,21.24 C50.18,22.4800062 50.5899959,23.399997 51.41,24 C52.2300041,24.600003 53.239994,25.0699983 54.44,25.41 C55.640006,25.7500017 56.9599928,26.0399988 58.4,26.28 C59.8400072,26.5200012 61.159994,26.9099973 62.36,27.45 C63.560006,27.9900027 64.5699959,28.7699949 65.39,29.79 C66.2100041,30.8100051 66.62,32.2599906 66.62,34.14 C66.62,35.5800072 66.3500027,36.8299947 65.81,37.89 C65.2699973,38.9500053 64.5300047,39.8399964 63.59,40.56 C62.6499953,41.2800036 61.580006,41.8199982 60.38,42.18 C59.179994,42.5400018 57.9200066,42.72 56.6,42.72 C54.199988,42.72 52.0100099,42.2600046 50.03,41.34 C48.0499901,40.4199954 46.5200054,39.0000096 45.44,37.08 L48.62,34.92 Z M74.72,14.28 L78.32,14.28 L78.32,42 L74.72,42 L74.72,14.28 Z M73.82,3.3 C73.82,2.5399962 74.0799974,1.9000026 74.6,1.38 C75.1200026,0.8599974 75.7599962,0.6 76.52,0.6 C77.2800038,0.6 77.9199974,0.8599974 78.44,1.38 C78.9600026,1.9000026 79.22,2.5399962 79.22,3.3 C79.22,4.0600038 78.9600026,4.6999974 78.44,5.22 C77.9199974,5.7400026 77.2800038,6 76.52,6 C75.7599962,6 75.1200026,5.7400026 74.6,5.22 C74.0799974,4.6999974 73.82,4.0600038 73.82,3.3 Z M102.08,17.52 L94.16,17.52 L94.16,35.58 C94.16,36.8200062 94.4999966,37.7799966 95.18,38.46 C95.8600034,39.1400034 96.799994,39.48 98,39.48 C98.6800034,39.48 99.3699965,39.3900009 100.07,39.21 C100.770004,39.0299991 101.439997,38.8000014 102.08,38.52 L102.38,41.76 C101.699997,42.0000012 100.920004,42.219999 100.04,42.42 C99.1599956,42.620001 98.3800034,42.72 97.7,42.72 C96.4199936,42.72 95.3200046,42.5300019 94.4,42.15 C93.4799954,41.7699981 92.7400028,41.2600032 92.18,40.62 C91.6199972,39.9799968 91.2100013,39.2300043 90.95,38.37 C90.6899987,37.5099957 90.56,36.580005 90.56,35.58 L90.56,17.52 L84.56,17.52 L84.56,14.28 L90.56,14.28 L90.56,6.3 L94.16,6.3 L94.16,14.28 L102.08,14.28 L102.08,17.52 Z M132.98,36.78 C131.579993,38.9000106 129.85001,40.4199954 127.79,41.34 C125.72999,42.2600046 123.460012,42.72 120.98,42.72 C118.859989,42.72 116.940009,42.3600036 115.22,41.64 C113.499991,40.9199964 112.020006,39.9100065 110.78,38.61 C109.539994,37.3099935 108.590003,35.7700089 107.93,33.99 C107.269997,32.2099911 106.94,30.2400108 106.94,28.08 C106.94,25.9999896 107.279997,24.0800088 107.96,22.32 C108.640003,20.5599912 109.599994,19.0300065 110.84,17.73 C112.080006,16.4299935 113.539992,15.4100037 115.22,14.67 C116.900008,13.9299963 118.75999,13.56 120.8,13.56 C122.920011,13.56 124.789992,13.9299963 126.41,14.67 C128.030008,15.4100037 129.389995,16.3899939 130.49,17.61 C131.590006,18.8300061 132.419997,20.2199922 132.98,21.78 C133.540003,23.3400078 133.82,24.919992 133.82,26.52 L133.82,29.04 L110.54,29.04 C110.54,29.8000038 110.689999,30.7699941 110.99,31.95 C111.290002,33.1300059 111.839996,34.2799944 112.64,35.4 C113.440004,36.5200056 114.509993,37.479996 115.85,38.28 C117.190007,39.080004 118.919989,39.48 121.04,39.48 C122.880009,39.48 124.659991,39.0400044 126.38,38.16 C128.100009,37.2799956 129.419995,36.0800076 130.34,34.56 L132.98,36.78 Z M130.22,25.8 C130.22,24.5599938 129.970003,23.4000054 129.47,22.32 C128.969998,21.2399946 128.290004,20.2900041 127.43,19.47 C126.569996,18.6499959 125.550006,18.0000024 124.37,17.52 C123.189994,17.0399976 121.940007,16.8 120.62,16.8 C118.65999,16.8 117.030007,17.199996 115.73,18 C114.429994,18.800004 113.400004,19.7199948 112.64,20.76 C111.879996,21.8000052 111.340002,22.8099951 111.02,23.79 C110.699998,24.7700049 110.54,25.4399982 110.54,25.8 L130.22,25.8 Z" id="insite"></path>
            </g>
        </g>
    </g>
</svg>